<?xml version="1.0" encoding="UTF-8" standalone="no"?>
<!DOCTYPE svg PUBLIC "-//W3C//DTD SVG 1.1//EN" "http://www.w3.org/Graphics/SVG/1.1/DTD/svg11.dtd">
<svg version="1.1" xmlns="http://www.w3.org/2000/svg" xmlns:xlink="http://www.w3.org/1999/xlink" preserveAspectRatio="xMidYMid meet" viewBox="0 0 560 560" width="560" height="560"><defs><path d="M546.53 280C546.53 427.1 427.1 546.53 280 546.53C132.9 546.53 13.47 427.1 13.47 280C13.47 132.9 132.9 13.47 280 13.47C427.1 13.47 546.53 132.9 546.53 280Z" id="acOXtKu0a"></path><path d="M526.82 280C526.82 416.23 416.23 526.82 280 526.82C143.77 526.82 33.18 416.23 33.18 280C33.18 143.77 143.77 33.18 280 33.18C416.23 33.18 526.82 143.77 526.82 280Z" id="f24QHEUCU"></path><path d="M461.5 376.93C470.17 376.93 473.86 387.94 466.95 393.16C462.01 396.89 468.71 391.83 463.77 395.56C449.82 406.1 432.81 411.8 415.32 411.8C358.24 411.8 213.94 411.8 156.86 411.8C139.38 411.8 122.4 406.03 108.54 395.39C103.73 391.7 110.67 397.03 105.86 393.34C98.93 388.01 102.69 376.93 111.43 376.93C186.84 376.93 386.1 376.93 461.5 376.93Z" id="c8FI5x4gS"></path><path d="M461.83 365C472.04 365 476.62 377.8 468.72 384.27C463.82 388.29 472.64 381.06 467.74 385.07C452.53 397.54 433.47 404.35 413.81 404.35C354.93 404.35 208.73 404.35 149.85 404.35C130.2 404.35 111.17 397.46 96.08 384.88C91.3 380.91 100.35 388.44 95.57 384.46C87.66 377.87 92.32 365 102.62 365C180.55 365 383.9 365 461.83 365Z" id="l3a2qMpQ5P"></path><path d="M447.37 155.65C451.57 155.65 454.97 159.05 454.97 163.25C454.97 201.26 454.97 307.69 454.97 345.7C454.97 349.9 451.57 353.3 447.37 353.3C379.76 353.3 184.55 353.3 116.94 353.3C112.74 353.3 109.34 349.9 109.34 345.7C109.34 307.69 109.34 201.26 109.34 163.25C109.34 159.05 112.74 155.65 116.94 155.65C184.55 155.65 379.76 155.65 447.37 155.65Z" id="c13eEn2llM"></path><path d="M121.69 166.21L442.62 166.21L442.62 340.76L121.69 340.76L121.69 166.21Z" id="baWpFvHdh"></path><path d="M121.69 340.77L121.69 333.44L122.76 329.97L125.95 321.95L129.81 314.05L134.33 306.26L139.49 298.6L145.27 291.07L151.67 283.68L158.67 276.44L166.25 269.34L174.41 262.41L183.12 255.64L192.37 249.04L202.15 242.62L212.44 236.39L223.23 230.34L234.51 224.5L246.25 218.85L258.46 213.42L271.1 208.21L284.18 203.22L297.67 198.46L311.55 193.94L325.83 189.67L340.47 185.64L355.47 181.87L370.82 178.37L386.49 175.13L402.47 172.17L418.76 169.5L435.33 167.11L442.62 166.21L442.62 340.77L121.69 340.77Z" id="d8dYGXDpaK"></path><path d="M371.5 258.81C372.02 254.15 364.03 250.66 364.03 243.73C364.03 241.96 362.92 235.37 361.28 232.84C359.03 229.36 359.04 224.49 359.7 221.01C360.46 217.01 359.24 212.85 356.04 208.54L350.32 202.38C349.98 198.04 348.39 194.58 345.55 192C341.3 188.12 336.65 187.59 335.97 187.65C335.37 184.48 330.74 182.12 322.06 180.56C317.74 177.25 313.05 175.59 307.97 175.59C307.97 175.59 307.97 175.59 307.97 175.59C294.57 175.59 283.69 191.26 283.69 210.59C283.69 219.36 283.69 289.59 283.69 298.36C283.69 311.7 284.48 320.52 292.09 326.43C295.51 329.08 303.82 333.36 307.97 333.36C307.97 333.36 318.22 329.62 318.22 329.62C324.13 329.62 326.76 328.47 331.05 324.24C335.34 320.02 337.18 314.69 338.32 306.84C345.61 306.02 349.86 294.65 354.1 293.41C358.33 292.17 363.63 286.88 363.63 280.74C363.63 277.56 363.7 278.25 367.95 272.64C372.2 267.02 370.98 263.48 371.5 258.81Z" id="c1ptW3Iqn3"></path><path d="M192.81 258.81C192.29 254.15 200.28 250.66 200.28 243.73C200.28 241.96 201.39 235.37 203.03 232.84C205.28 229.36 205.27 224.49 204.61 221.01C203.85 217.01 205.07 212.85 208.27 208.54L213.99 202.38C214.33 198.04 215.92 194.58 218.76 192C223.01 188.12 227.66 187.59 228.34 187.65C228.94 184.48 233.57 182.12 242.24 180.56C246.57 177.25 251.26 175.59 256.34 175.59C256.34 175.59 256.34 175.59 256.34 175.59C269.74 175.59 280.61 191.26 280.61 210.59C280.61 219.36 280.61 289.59 280.61 298.36C280.61 311.7 279.83 320.52 272.22 326.43C268.8 329.08 260.49 333.36 256.34 333.36C256.34 333.36 246.09 329.62 246.09 329.62C240.18 329.62 237.55 328.47 233.26 324.24C228.97 320.02 227.13 314.69 225.99 306.84C218.7 306.02 214.45 294.65 210.21 293.41C205.98 292.17 200.68 286.88 200.68 280.74C200.68 277.56 200.61 278.25 196.36 272.64C192.11 267.02 193.33 263.48 192.81 258.81Z" id="b6RgHSXfn"></path><path d="M244.9 268.12C259.26 273.1 268.64 268.67 273.04 254.82C277.44 240.97 277.44 229.83 273.04 221.4" id="djI7TSLeu"></path><path d="M226.55 239.65C214.46 246.69 208.41 246.03 208.41 237.7C208.41 229.36 211.12 222.39 216.54 216.79" id="cpffuBfim"></path><path d="" id="b4V25IjRT"></path><path d="M274.03 276.36C275.57 266.4 273.63 262.29 268.2 264.05" id="b2JzjfdXxc"></path><path d="" id="kxMKsvOrg"></path><path d="M235.67 282.3C227.46 265.66 230.83 261.05 245.78 268.45" id="b7XlYrPHT"></path><path d="M267.76 283.84C287.44 299.44 253.26 284.06 264.36 307.14C271.76 322.53 264.25 328.1 241.82 323.85" id="agFOcUmQU"></path><path d="M264.65 250.3C251.13 242.3 243.42 247.53 241.52 265.97" id="b5IlvcNfWe"></path><path d="M222.46 280C226.61 263.53 222.85 251.48 211.17 243.84" id="bzyZS9HoE"></path><path d="M243.44 301.94C220.54 300.71 208.32 286.26 206.79 258.6" id="f1x1s9Hrkm"></path><path d="M259.12 191.51C264.04 205.19 258.17 218.94 241.52 232.78" id="c2lZf9CbMb"></path><path d="M245.78 190.36C244.27 202.04 248.31 208.65 257.91 210.18" id="a78ggDg8K"></path><path d="M233.17 224.38C238.57 213.58 238.86 206.86 234.04 204.23C229.22 201.6 223.31 205.87 216.3 217.02" id="bbqaZnBc"></path><path d="M320.09 268.78C305.72 273.76 296.34 269.33 291.95 255.48C287.55 241.63 287.55 230.49 291.95 222.07" id="bIx9YHARz"></path><path d="M338.44 240.31C350.53 247.35 356.58 246.69 356.58 238.36C356.58 230.02 353.87 223.05 348.44 217.45" id="c33W4rZvJZ"></path><path d="" id="b18tV1R4Mc"></path><path d="M290.96 277.02C289.42 267.06 291.36 262.95 296.78 264.71" id="b4UVkMj3cg"></path><path d="" id="a299l5666c"></path><path d="M329.32 282.96C337.53 266.32 334.16 261.71 319.21 269.11" id="a3arQEOO8t"></path><path d="M297.22 284.5C277.55 300.11 311.73 284.72 300.63 307.8C293.23 323.19 300.74 328.76 323.16 324.51" id="anzdZDM0L"></path><path d="M300.34 250.96C313.86 242.97 321.57 248.19 323.46 266.63" id="f3OvblwbiE"></path><path d="M342.53 280.66C338.38 264.19 342.14 252.14 353.82 244.5" id="af74XvuI9"></path><path d="M321.55 302.6C344.45 301.37 356.66 286.92 358.2 259.26" id="c2a8LQu3XS"></path><path d="M305.87 192.17C300.95 205.85 306.82 219.61 323.46 233.44" id="axvC3ABeE"></path><path d="M319.21 191.02C320.72 202.7 316.68 209.31 307.08 210.84" id="b4ZlI025wa"></path><path d="M331.82 225.04C326.42 214.24 326.13 207.52 330.95 204.89C335.76 202.27 341.68 206.53 348.69 217.68" id="b5jxYA47h"></path></defs><g><g><g><g><use xlink:href="#acOXtKu0a" opacity="1" fill="#357ded" fill-opacity="1"></use></g><g><use xlink:href="#f24QHEUCU" opacity="1" fill="#e2e2e2" fill-opacity="1"></use></g><g><use xlink:href="#c8FI5x4gS" opacity="1" fill="#71777f" fill-opacity="1"></use></g><g><use xlink:href="#l3a2qMpQ5P" opacity="1" fill="#b9b9b9" fill-opacity="1"></use></g><g><use xlink:href="#c13eEn2llM" opacity="1" fill="#4f4f4f" fill-opacity="1"></use></g><g><use xlink:href="#baWpFvHdh" opacity="1" fill="#e9e9e9" fill-opacity="1"></use></g><g><use xlink:href="#d8dYGXDpaK" opacity="1" fill="#d3d3d3" fill-opacity="1"></use></g><g><use xlink:href="#c1ptW3Iqn3" opacity="1" fill="#4357ad" fill-opacity="1"></use></g><g><use xlink:href="#b6RgHSXfn" opacity="1" fill="#4357ad" fill-opacity="1"></use></g><g><g><g><use xlink:href="#djI7TSLeu" opacity="1" fill-opacity="0" stroke="#000000" stroke-width="1" stroke-opacity="1"></use></g></g><g><g><use xlink:href="#cpffuBfim" opacity="1" fill-opacity="0" stroke="#000000" stroke-width="1" stroke-opacity="1"></use></g></g><g><g><use xlink:href="#b4V25IjRT" opacity="1" fill-opacity="0" stroke="#000000" stroke-width="1" stroke-opacity="1"></use></g></g><g><g><use xlink:href="#b2JzjfdXxc" opacity="1" fill-opacity="0" stroke="#000000" stroke-width="1" stroke-opacity="1"></use></g></g><g><g><use xlink:href="#kxMKsvOrg" opacity="1" fill-opacity="0" stroke="#000000" stroke-width="1" stroke-opacity="1"></use></g></g><g><g><use xlink:href="#b7XlYrPHT" opacity="1" fill-opacity="0" stroke="#000000" stroke-width="1" stroke-opacity="1"></use></g></g><g><g><use xlink:href="#agFOcUmQU" opacity="1" fill-opacity="0" stroke="#000000" stroke-width="1" stroke-opacity="1"></use></g></g><g><g><use xlink:href="#b5IlvcNfWe" opacity="1" fill-opacity="0" stroke="#000000" stroke-width="1" stroke-opacity="1"></use></g></g><g><g><use xlink:href="#bzyZS9HoE" opacity="1" fill-opacity="0" stroke="#000000" stroke-width="1" stroke-opacity="1"></use></g></g><g><g><use xlink:href="#f1x1s9Hrkm" opacity="1" fill-opacity="0" stroke="#000000" stroke-width="1" stroke-opacity="1"></use></g></g><g><g><use xlink:href="#c2lZf9CbMb" opacity="1" fill-opacity="0" stroke="#000000" stroke-width="1" stroke-opacity="1"></use></g></g><g><g><use xlink:href="#a78ggDg8K" opacity="1" fill-opacity="0" stroke="#000000" stroke-width="1" stroke-opacity="1"></use></g></g><g><g><use xlink:href="#bbqaZnBc" opacity="1" fill-opacity="0" stroke="#000000" stroke-width="1" stroke-opacity="1"></use></g></g></g><g><g><g><use xlink:href="#bIx9YHARz" opacity="1" fill-opacity="0" stroke="#000000" stroke-width="1" stroke-opacity="1"></use></g></g><g><g><use xlink:href="#c33W4rZvJZ" opacity="1" fill-opacity="0" stroke="#000000" stroke-width="1" stroke-opacity="1"></use></g></g><g><g><use xlink:href="#b18tV1R4Mc" opacity="1" fill-opacity="0" stroke="#000000" stroke-width="1" stroke-opacity="1"></use></g></g><g><g><use xlink:href="#b4UVkMj3cg" opacity="1" fill-opacity="0" stroke="#000000" stroke-width="1" stroke-opacity="1"></use></g></g><g><g><use xlink:href="#a299l5666c" opacity="1" fill-opacity="0" stroke="#000000" stroke-width="1" stroke-opacity="1"></use></g></g><g><g><use xlink:href="#a3arQEOO8t" opacity="1" fill-opacity="0" stroke="#000000" stroke-width="1" stroke-opacity="1"></use></g></g><g><g><use xlink:href="#anzdZDM0L" opacity="1" fill-opacity="0" stroke="#000000" stroke-width="1" stroke-opacity="1"></use></g></g><g><g><use xlink:href="#f3OvblwbiE" opacity="1" fill-opacity="0" stroke="#000000" stroke-width="1" stroke-opacity="1"></use></g></g><g><g><use xlink:href="#af74XvuI9" opacity="1" fill-opacity="0" stroke="#000000" stroke-width="1" stroke-opacity="1"></use></g></g><g><g><use xlink:href="#c2a8LQu3XS" opacity="1" fill-opacity="0" stroke="#000000" stroke-width="1" stroke-opacity="1"></use></g></g><g><g><use xlink:href="#axvC3ABeE" opacity="1" fill-opacity="0" stroke="#000000" stroke-width="1" stroke-opacity="1"></use></g></g><g><g><use xlink:href="#b4ZlI025wa" opacity="1" fill-opacity="0" stroke="#000000" stroke-width="1" stroke-opacity="1"></use></g></g><g><g><use xlink:href="#b5jxYA47h" opacity="1" fill-opacity="0" stroke="#000000" stroke-width="1" stroke-opacity="1"></use></g></g></g></g></g></g></svg>